<svg xmlns="http://www.w3.org/2000/svg" xmlns:xlink="http://www.w3.org/1999/xlink" viewBox="0 0 163.9 102.8">
  <defs>
    <style>
      .cls-1 {
        fill: #88a5bf;
      }

      .cls-2 {
        clip-path: url(#clip-path);
      }

      .cls-3 {
        fill: url(#linear-gradient);
      }

      .cls-4 {
        fill: #006837;
      }

      .cls-5 {
        fill: none;
        stroke: #fff;
        stroke-miterlimit: 10;
        stroke-width: 8.28px;
      }

      .cls-6 {
        fill: #fff;
      }
    </style>
    <clipPath id="clip-path">
      <circle class="cls-1" cx="81" cy="51.4" r="46"/>
    </clipPath>
    <linearGradient id="linear-gradient" x1="81.9" y1="99.14" x2="81.9" y2="47.7" gradientUnits="userSpaceOnUse">
      <stop offset="0" stop-color="#2fa644"/>
      <stop offset="1" stop-color="#19774b"/>
    </linearGradient>
  </defs>
  <title>xo_logo</title>
  <g id="Layer_2" data-name="Layer 2">
    <g id="Layer_1-2" data-name="Layer 1">
      <g>
        <g>
          <circle class="cls-1" cx="81" cy="51.4" r="46"/>
          <g class="cls-2">
            <polygon class="cls-3" points="44.4 54.4 30.2 57 8.8 69.5 0.2 72.4 0.3 99.1 163.6 99.1 163.6 72.4 155.4 70 132.9 56.7 120.4 54.4 107.6 58.7 87.5 47.7 67.4 53.3 58.1 59.5 44.4 54.4"/>
            <path class="cls-4" d="M163.9,72.3h-.6l-3.5-.6-3.7-.8-1.9-.6-2.2-1c-.8-.3-2.9-1.5-6.5-3.5l-7.6-4.3-3.2-1.6-1.1-.4-.3.3q-.3.3,0,.9c.2.5,1.6,1.4,4.2,2.9a46.6,46.6,0,0,0,4.8,2.6l1.4.6a1.4,1.4,0,0,1,.9.5l.4.4h-1.8a7.4,7.4,0,0,1-2.2-.3l-2.3-.7-2.7-1-1.2-.4.3,1.1.2,1.1-.8-.5-1.2-.5c-.8-.2-1.6-1.8-2.2-2.4s-2.1-2.3-3.2-3.6a10.3,10.3,0,0,0-2.7-2.2,12.5,12.5,0,0,0-4-1.2l-2.2-.2-1.7.2-1.1.4a18,18,0,0,0-2.9,1.2l-2,1.1,1.1.7c.6,1.4,2,2.4,2.7,3.5s6.7,3.7,7.5,5.2c-1.9.3-9.7-1.2-8.8-.7L111.3,67h-1.6c-6.5-.8-7-.8-8.4-.6s2.4-1.6,6.8-2.3c1-.3,3,0,4.4-.6a7.4,7.4,0,0,0-2.7-3.1l-1.9-.6A11.7,11.7,0,0,1,105,59l-2.9-1.1-3.3-1.5a8.7,8.7,0,0,1-1.7-.8H97l-2.2-.3-2-.4-.6-.5-1.2-1-1.5-1a7.9,7.9,0,0,0-1.6-.8l-.7-.2v2.9l1.2.4c1.4.5,2.8.8,4.1,1.4a9.1,9.1,0,0,1,1.7.9l.9.6a16.2,16.2,0,0,0,3.3,1.3l1.2.6v.2L94,59.3a45.6,45.6,0,0,1-7-.8c-.9-.2-1.4-.3-1.4-.4h-.1l.4-.4a3.5,3.5,0,0,1,1.2-.7l.8-.2-1-.3-2.5-.8-1.5-.4-.5-.7-1-1.6-.6-1h-.5a2.4,2.4,0,0,0-1.3.7l-3,3.1a14.8,14.8,0,0,1-4.1,3.2l-3.8,1.6-3.6,1.4-2.2,1.1a3.5,3.5,0,0,0-1.2,1L60,65.5c-.3.4-.6.7-.9.7l-1.8,2.1v-.8c.3-1.5,1.4-2.2,1.7-3a10.2,10.2,0,0,1,1.6-2.2l1.8-1.4,2.4-1.1,2.9-1.2,1.8-1a12.1,12.1,0,0,0,1.4-2l.8-1.5h-1a6.1,6.1,0,0,0-1.9.1,5,5,0,0,0-2,.9,33.6,33.6,0,0,0-4.2,3.4,35.2,35.2,0,0,1-5.8,4.5L53.1,65l-2.8,1.4L46,68.2l-3,1-1.1.4-3.5.7a55.3,55.3,0,0,1-7.4.9l-7.6.5-4.1.3H18.2l.5-.3a2.3,2.3,0,0,1,1.1-.5l1.5-.4,2.4-.3,3.1-.5,2.8-.3,3.6-.5,4.7-.8a22.8,22.8,0,0,0,3.9-.9l2.4-.9a10.8,10.8,0,0,0,2.1-1.1l4-2.3A19.7,19.7,0,0,0,53.7,61l.5-.7h-.4l-.9-.4-2.3-1.3a18,18,0,0,0-2.9-1.2l-1.1-.4-1.7-.2-2.3.2a12.7,12.7,0,0,0-3.9,1.2A8.9,8.9,0,0,0,36,60.3c-.7.8-1.2,1.7-2,2.5s-1.3,1.1-1.9,1.8-.8,1.5-1.5,1.7a10,10,0,0,0-2.1,1,5.2,5.2,0,0,0,.4-2.1,1.9,1.9,0,0,0-1,.3l-2.8,1-2.2.7a7.7,7.7,0,0,1-2.3.3H18.9c.9-1,2.3-1.1,3.4-1.7l4.1-2.3c2.5-1.5,3.9-2.4,4.1-2.9s.3-.7.1-.9l-.3-.3-1.1.4L26,61.4l-7.6,4.3-6.5,3.5-2.2,1-1.9.6-3.7.8-3.5.6H0L.4,72l2.4-.9c1.3-.5,2.9-1.3,4.9-2.3l3.6-1.9,3.5-2.2,3.5-2.1,6.1-3.9A46.4,46.4,0,0,1,31,54.8l1.1-.4h3.8l1-.4,2.7-1.4a14.2,14.2,0,0,1,3.5-1.4c1.1-.3.8-.6,1.9.2s3.5.9,5.2,1.7,3.1,2,4.7,2.9l2.6,1.3.7.3L59,57a10.6,10.6,0,0,1,1.9-1.6,14.3,14.3,0,0,1,2.6-1.9l2-.9,3.1-.7,3.4-.6,2.5-.8a7.5,7.5,0,0,0,2-1.1,2.9,2.9,0,0,1,1.1-.8l1.9-.6,2.3-.7a6.5,6.5,0,0,1,1.6-.3c.7-.1,1-2,2.3-1.9l2.4-.9,3.1,2.5c1,.3.9,1.9,3,2.9A18.2,18.2,0,0,1,98.6,52l2.2,1.6,2,1.4a22.2,22.2,0,0,0,3.3,1.8c.9.3.6.3.8.5l2.1-1.1,3.2-2.2a10.4,10.4,0,0,1,4.5-1.5,7,7,0,0,0,2-.8c.5-.1.6-.8,1-.8s.8.4,1.1.5a14.2,14.2,0,0,1,3.5,1.4l2.7,1.4,1,.4h3.7l1.1.4c.8.2,3,1.5,6.7,3.9l6,3.9,3.5,2.1,3.6,2.2,3.6,1.9c2,1,3.6,1.8,4.9,2.3l2.4.9Z"/>
          </g>
        </g>
        <g>
          <circle class="cls-5" cx="81" cy="51.4" r="47.3"/>
          <g>
            <g>
              <polygon class="cls-6" points="69.4 43.6 76.4 36.8 54.1 17 68.8 45.2 69.4 43.6"/>
              <polygon class="cls-6" points="92.5 59.3 85.5 66 107.8 85.8 93.1 57.7 92.5 59.3"/>
            </g>
            <path class="cls-6" d="M73.3,46.2,56.4,87.5,88.6,56.6l16.9-41.3Zm17.6-.8-8-5.4L99.6,24Z"/>
          </g>
        </g>
      </g>
    </g>
  </g>
</svg>
